<?xml version="1.0" encoding="iso-8859-1"?>
<!-- Generator: Adobe Illustrator 19.0.0, SVG Export Plug-In . SVG Version: 6.00 Build 0)  -->
<svg class="svg-icon" xmlns="http://www.w3.org/2000/svg" viewBox="0 0 11.781 16">
<defs></defs>
<path class="svg-location" d="M5.89 0A5.9 5.9 0 0 0 0 5.891 5.746 5.746 0 0 0 .517 8.3a37.14 37.14 0 0 0 5.127 7.591.328.328 0 0 0 .5 0A37.159 37.159 0 0 0 11.266 8.3a5.743 5.743 0 0 0 .515-2.4A5.9 5.9 0 0 0 5.89 0zm0 8.95a3.06 3.06 0 1 1 3.06-3.06 3.063 3.063 0 0 1-3.06 3.06z"></path></svg>

